<?xml version="1.0" encoding="UTF-8" standalone="no"?>
<!-- Created with Inkscape (http://www.inkscape.org/) -->

<svg
   version="1.1"
   id="svg1"
   width="512"
   height="512"
   viewBox="0 0 512 512"
   sodipodi:docname="logofigma.svg"
   inkscape:version="1.4.2 (f4327f4, 2025-05-13)"
   xmlns:inkscape="http://www.inkscape.org/namespaces/inkscape"
   xmlns:sodipodi="http://sodipodi.sourceforge.net/DTD/sodipodi-0.dtd"
   xmlns="http://www.w3.org/2000/svg"
   xmlns:svg="http://www.w3.org/2000/svg">
  <defs
     id="defs1" />
  <sodipodi:namedview
     id="namedview1"
     pagecolor="#ffffff"
     bordercolor="#000000"
     borderopacity="0.25"
     inkscape:showpageshadow="2"
     inkscape:pageopacity="0.0"
     inkscape:pagecheckerboard="0"
     inkscape:deskcolor="#d1d1d1"
     inkscape:zoom="1.5097656"
     inkscape:cx="183.14101"
     inkscape:cy="256"
     inkscape:window-width="1920"
     inkscape:window-height="991"
     inkscape:window-x="-9"
     inkscape:window-y="-9"
     inkscape:window-maximized="1"
     inkscape:current-layer="g1" />
  <g
     inkscape:groupmode="layer"
     inkscape:label="Image"
     id="g1">
    <g
       id="g2"
       transform="translate(3.4540751e-7,0.66235479)">
      <path
         style="fill:#aaaaff"
         d="M 0,256 V 0 L 79.25,0.07895723 158.5,0.15791446 149.35783,2.4841784 C 116.75772,10.779419 91.629393,37.752234 85.911317,70.587853 84.184368,80.504729 85.29149,100.74789 88.039468,109.5 c 4.802712,15.29629 15.511292,31.80796 26.567072,40.96404 12.32361,10.20606 29.75816,17.97322 43.25348,19.26961 l 6.63998,0.63784 -8.73697,1.77564 c -27.91518,5.67327 -49.52641,22.36442 -61.311146,47.35287 -6.373053,13.51348 -7.906958,20.59427 -7.906958,36.5 0,16.31716 1.561041,23.23709 8.459488,37.5 11.676876,24.14258 33.372616,40.87472 59.495586,45.88406 12.14617,2.32914 12.29323,2.37562 7.90996,2.49994 -6.30071,0.1787 -19.1144,3.77087 -27.32121,7.65918 -29.69442,14.06897 -48.986092,44.19313 -49.067108,76.61885 -0.101955,40.80671 28.192688,75.53475 68.602178,84.20036 6.27786,1.34625 -0.1501,1.48165 -73.87382,1.55608 L 0,512 Z m 182.5,255.52139 c 0.55,-0.1764 4.375,-1.08588 8.5,-2.02108 25.5919,-5.80203 47.93623,-24.65235 58.6811,-49.50506 6.80881,-15.74868 6.59309,-12.49341 7.09016,-106.99525 0.40372,-76.75543 0.59379,-84.81542 1.85839,-78.80653 3.42436,16.27125 10.53372,28.97738 23.39169,41.80653 17.53284,17.49354 35.86295,25.00102 60.97866,24.97508 36.38114,-0.0376 68.55863,-23.83963 80.16932,-59.30217 3.17546,-9.69883 3.33047,-10.87195 3.32611,-25.17291 -0.004,-12.73435 -0.35957,-16.2435 -2.35489,-23.23275 -9.51611,-33.33311 -37.97436,-57.79477 -72.2239,-62.081 -6.20823,-0.77694 -6.66877,-0.94919 -2.8266,-1.05721 6.7549,-0.1899 19.37323,-3.66965 27.82121,-7.67222 C 415.89428,143.98698 434.98198,100.00469 421.81005,59 412.53978,30.141356 387.89843,8.175799 357.48443,1.6594895 351.06149,0.28335156 356.99161,0.15649669 431.25,0.08152532 L 512,0 v 256 256 l -165.25,-0.079 c -90.8875,-0.0434 -164.8,-0.22327 -164.25,-0.39966 z M 257.08153,207.75 257,171 l 37.25,0.1169 c 24.9529,0.0783 35.51953,0.40534 32.0081,0.99061 -31.95986,5.32699 -60.69949,33.12882 -67.59827,65.39249 -1.43323,6.70278 -1.50024,5.4396 -1.5783,-29.75 z"
         id="path7" />
      <path
         style="fill:#2a7fff"
         d="m 256,342.10861 c 0,-0.95108 -10.44573,-1.18963 -46.75,-1.06765 -50.9697,0.17126 -55.10478,-0.17374 -69.25,-5.77768 C 114.78818,325.27507 95.214736,303.00321 88.356354,276.5 c -2.52809,-9.76943 -2.517683,-31.30032 0.01982,-41 6.948924,-26.56249 26.091256,-48.54013 50.946636,-58.4927 C 153.7132,171.2451 156.55876,171 209.06538,171 H 257 l 0.029,36.75 c 0.0714,90.44125 -0.10903,134.66333 -0.55133,135.10563 -0.26273,0.26274 -0.4777,-0.0734 -0.4777,-0.74702 z"
         id="path6" />
      <path
         style="fill:#0000aa"
         d="m 210.20656,170.29964 45.70655,-0.31956 0.62511,-3.33211 c 0.34381,-1.83266 0.47586,-40.10116 0.29344,-85.041115 L 256.5,-0.1021505 306,0.24312593 c 48.00964,0.33488074 49.72581,0.41335564 57,2.60641887 50.24043,15.1467692 75.89284,67.1403402 56.59754,114.7146852 -9.98771,24.62562 -31.51197,43.36252 -58.09754,50.57402 -7.92379,2.14937 -8.90023,2.17153 -102.5,2.32549 -51.975,0.0855 -73.93205,0.0117 -48.79344,-0.1641 z"
         id="path5" />
      <path
         style="fill:#03baf4"
         d="m 193.81732,341.25089 c 11.72452,-0.16008 30.62452,-0.15988 42,4.5e-4 11.37547,0.16034 1.78268,0.29131 -21.31732,0.29107 -23.1,-2.5e-4 -32.40721,-0.13143 -20.68268,-0.29152 z m 132.44078,-1.3584 C 310.16665,337.21041 295.15134,329.10057 282.02134,316 c -12.33889,-12.31124 -18.99686,-23.83063 -23.11915,-40 -2.11128,-8.28134 -1.82021,-33.65943 0.4817,-42 9.01269,-32.6558 37.25756,-57.76465 69.92468,-62.16096 43.52163,-5.85709 82.90623,19.65461 94.83197,61.42821 1.99532,6.98925 2.35101,10.4984 2.35489,23.23275 0.004,14.30096 -0.15065,15.47408 -3.32611,25.17291 -7.97927,24.3711 -26.7673,44.59619 -49.64486,53.44208 -4.38654,1.69612 -10.91154,3.70629 -14.5,4.46706 -7.1628,1.51855 -24.5309,1.6831 -32.76636,0.31044 z"
         id="path4" />
      <path
         style="fill:#0055d4"
         d="M 154,168.49783 C 96.618677,156.89588 67.856139,94.005073 96.683817,43.172975 107.99762,23.223254 126.98586,8.8888604 150.1065,2.8437155 158.07247,0.7609261 160.97516,0.62918693 207.09337,0.25735678 l 48.59336,-0.39178623 0.65209,11.31721445 c 0.81967,14.225732 0.84716,153.521335 0.0309,156.567215 l -0.60297,2.25 -47.63337,-0.094 C 173.0741,169.83687 158.78415,169.46514 154,168.49783 Z"
         id="path3" />
      <path
         style="fill:#3771c8"
         d="M 157.04713,510.92611 C 109.64316,502.51046 78.203076,456.4032 87.884285,409.49799 94.494649,377.47093 118.5966,352.25238 150.43834,344.04592 157.90675,342.12111 161.26501,342 207.16929,342 h 48.79261 l 0.61264,2.44096 c 0.33695,1.34252 0.41033,23.05502 0.16307,48.25 -0.51351,52.3248 -0.84355,54.88173 -9.26908,71.80904 -10.84427,21.78671 -32.0591,38.99372 -55.46853,44.98967 -7.75897,1.98733 -27.32131,2.79127 -34.95287,1.43644 z"
         id="path2" />
    </g>
  </g>
</svg>
