<svg xmlns="http://www.w3.org/2000/svg" xmlns:xlink="http://www.w3.org/1999/xlink" style="display:none">

	<symbol id="figma" viewBox="0 0 512 512">
		<g transform="translate(3.4540751e-7,0.66235479)">
			<path
				style="fill:#2a7fff"
				d="m 256,342.10861 c 0,-0.95108 -10.44573,-1.18963 -46.75,-1.06765 -50.9697,0.17126 -55.10478,-0.17374 -69.25,-5.77768 C 114.78818,325.27507 95.214736,303.00321 88.356354,276.5 c -2.52809,-9.76943 -2.517683,-31.30032 0.01982,-41 6.948924,-26.56249 26.091256,-48.54013 50.946636,-58.4927 C 153.7132,171.2451 156.55876,171 209.06538,171 H 257 l 0.029,36.75 c 0.0714,90.44125 -0.10903,134.66333 -0.55133,135.10563 -0.26273,0.26274 -0.4777,-0.0734 -0.4777,-0.74702 z"
			/>
			<path
				style="fill:#0000aa"
				d="m 210.20656,170.29964 45.70655,-0.31956 0.62511,-3.33211 c 0.34381,-1.83266 0.47586,-40.10116 0.29344,-85.041115 L 256.5,-0.1021505 306,0.24312593 c 48.00964,0.33488074 49.72581,0.41335564 57,2.60641887 50.24043,15.1467692 75.89284,67.1403402 56.59754,114.7146852 -9.98771,24.62562 -31.51197,43.36252 -58.09754,50.57402 -7.92379,2.14937 -8.90023,2.17153 -102.5,2.32549 -51.975,0.0855 -73.93205,0.0117 -48.79344,-0.1641 z"
			/>
			<path
				style="fill:#03baf4"
				d="m 193.81732,341.25089 c 11.72452,-0.16008 30.62452,-0.15988 42,4.5e-4 11.37547,0.16034 1.78268,0.29131 -21.31732,0.29107 -23.1,-2.5e-4 -32.40721,-0.13143 -20.68268,-0.29152 z m 132.44078,-1.3584 C 310.16665,337.21041 295.15134,329.10057 282.02134,316 c -12.33889,-12.31124 -18.99686,-23.83063 -23.11915,-40 -2.11128,-8.28134 -1.82021,-33.65943 0.4817,-42 9.01269,-32.6558 37.25756,-57.76465 69.92468,-62.16096 43.52163,-5.85709 82.90623,19.65461 94.83197,61.42821 1.99532,6.98925 2.35101,10.4984 2.35489,23.23275 0.004,14.30096 -0.15065,15.47408 -3.32611,25.17291 -7.97927,24.3711 -26.7673,44.59619 -49.64486,53.44208 -4.38654,1.69612 -10.91154,3.70629 -14.5,4.46706 -7.1628,1.51855 -24.5309,1.6831 -32.76636,0.31044 z"
			/>
			<path
				style="fill:#0055d4"
				d="M 154,168.49783 C 96.618677,156.89588 67.856139,94.005073 96.683817,43.172975 107.99762,23.223254 126.98586,8.8888604 150.1065,2.8437155 158.07247,0.7609261 160.97516,0.62918693 207.09337,0.25735678 l 48.59336,-0.39178623 0.65209,11.31721445 c 0.81967,14.225732 0.84716,153.521335 0.0309,156.567215 l -0.60297,2.25 -47.63337,-0.094 C 173.0741,169.83687 158.78415,169.46514 154,168.49783 Z"
			/>
			<path
				style="fill:#3771c8"
				d="M 157.04713,510.92611 C 109.64316,502.51046 78.203076,456.4032 87.884285,409.49799 94.494649,377.47093 118.5966,352.25238 150.43834,344.04592 157.90675,342.12111 161.26501,342 207.16929,342 h 48.79261 l 0.61264,2.44096 c 0.33695,1.34252 0.41033,23.05502 0.16307,48.25 -0.51351,52.3248 -0.84355,54.88173 -9.26908,71.80904 -10.84427,21.78671 -32.0591,38.99372 -55.46853,44.98967 -7.75897,1.98733 -27.32131,2.79127 -34.95287,1.43644 z"
			/>
		</g>
	</symbol>
	<symbol id="star" viewBox="0 0 256 256">
		<g>
			<path d="M245.235 153.524c14.012-14.012 14.011-36.811 0-50.823-6.787-6.788-15.812-10.525-25.411-10.525-2.28 0-4.523.208-6.712.617 9.538-6.524 15.72-17.495 15.72-29.694 0-19.816-16.122-35.937-35.938-35.937-12.223 0-23.213 6.205-29.733 15.776 2.157-11.377-1.226-23.537-9.87-32.18C146.506 3.97 137.48.232 127.882.232c-9.6 0-18.624 3.738-25.412 10.526-8.643 8.643-12.026 20.803-9.87 32.18-6.519-9.57-17.509-15.776-29.733-15.776-19.815 0-35.936 16.12-35.936 35.937 0 12.2 6.18 23.17 15.718 29.694a36.487 36.487 0 0 0-6.711-.617c-9.6 0-18.624 3.738-25.411 10.526C3.738 109.489 0 118.514 0 128.112c0 9.6 3.738 18.624 10.526 25.412 6.787 6.787 15.812 10.526 25.41 10.526 2.28 0 4.523-.208 6.712-.618-9.538 6.525-15.718 17.496-15.718 29.695 0 19.815 16.12 35.936 35.936 35.936 12.224 0 23.215-6.206 29.734-15.776-2.157 11.378 1.226 23.538 9.87 32.18 6.787 6.788 15.812 10.526 25.41 10.526 9.6 0 18.625-3.738 25.412-10.526 8.643-8.643 12.026-20.803 9.869-32.18 6.52 9.57 17.51 15.776 29.733 15.776 19.816 0 35.937-16.12 35.937-35.936 0-12.2-6.18-23.17-15.719-29.695 2.189.41 4.433.618 6.712.618 9.599 0 18.624-3.739 25.411-10.526"/>
			<path d="M234.391 113.538c-8.049-8.048-21.099-8.048-29.148 0h-42.184l29.829-29.828c11.383 0 20.61-9.228 20.61-20.611 0-11.383-9.227-20.612-20.61-20.612-11.384 0-20.611 9.229-20.611 20.612l-29.829 29.829V50.743c8.049-8.049 8.049-21.099 0-29.148-8.05-8.05-21.1-8.05-29.149 0s-8.049 21.1 0 29.148v42.185l-29.828-29.83c0-11.382-9.228-20.61-20.611-20.61-11.383 0-20.611 9.228-20.611 20.61 0 11.384 9.228 20.612 20.61 20.612l29.83 29.828H50.504c-8.05-8.049-21.1-8.048-29.15 0-8.048 8.05-8.048 21.1 0 29.15 8.05 8.048 21.1 8.048 29.15 0h42.183L62.86 172.515c-11.383 0-20.611 9.227-20.611 20.61 0 11.384 9.228 20.612 20.61 20.612 11.384 0 20.612-9.228 20.612-20.611l29.828-29.829v42.184c-8.049 8.049-8.049 21.1 0 29.149 8.05 8.049 21.1 8.049 29.15 0 8.048-8.05 8.048-21.1 0-29.15v-42.183l29.828 29.829c0 11.383 9.227 20.61 20.61 20.61 11.384 0 20.612-9.227 20.612-20.61 0-11.384-9.228-20.611-20.611-20.611l-29.83-29.829h42.185c8.05 8.05 21.1 8.05 29.148 0 8.05-8.049 8.05-21.1 0-29.149" fill="#FFB13B"/>
		</g>
	</symbol>
</svg>